<?xml version="1.0" encoding="utf-8"?>
<!-- Generator: Adobe Illustrator 24.2.3, SVG Export Plug-In . SVG Version: 6.00 Build 0)  -->
<svg version="1.1" id="Layer_1" xmlns="http://www.w3.org/2000/svg" xmlns:xlink="http://www.w3.org/1999/xlink" x="0px" y="0px"
	 viewBox="0 0 1080 1080" style="enable-background:new 0 0 1080 1080;" xml:space="preserve">
<style type="text/css">
	.st0{fill:#111111;}
</style>
<g>
	<path class="st0" d="M483.85,330.31c13.86,15.77,20.92,34.35,21.18,55.72c-0.13,10.3-2.1,20.23-5.92,29.77
		c-3.94,9.54-9.29,18.06-16.03,25.57c-14.25,14.76-31.23,23.79-50.95,27.1l-7.25,0.95l-7.06,0.19h-1.91h-1.14h-2.67h-5.15
		l-20.42-0.19c-12.72,0-25.44,0.07-38.16,0.19v47.7c0,15.77-5.6,29.23-16.79,40.36c-11.2,11.13-24.68,16.7-40.45,16.7V357.98
		c0-15.77,5.6-29.22,16.79-40.36c11.19-11.13,24.68-16.7,40.45-16.7c12.98,0.26,26.01,0.38,39.12,0.38l20.42-0.19l5.15-0.19h2.67
		l3.24,0.19c4.83,0,9.6,0.45,14.31,1.34C453,306.02,469.85,315.3,483.85,330.31z M441.49,404.92c4.32-5.98,6.49-12.47,6.49-19.46
		c0.13-6.87-1.91-13.36-6.11-19.46c-4.58-6.11-10.81-10.3-18.7-12.59c-0.51-0.13-1.02-0.19-1.53-0.19c-1.4-0.38-2.93-0.63-4.58-0.76
		c-0.13,0-0.26,0-0.38,0c-0.13,0-0.29-0.03-0.48-0.1c-0.19-0.06-0.48-0.1-0.86-0.1h-2.48h-5.15l-20.42-0.19
		c-12.98,0-25.95,0.07-38.93,0.19v66.02c12.72,0.26,25.44,0.32,38.16,0.19h20.42l5.15-0.19h2.48h1.34h0.76l3.05-0.38
		c0.89-0.25,1.84-0.44,2.86-0.57C430.61,415.29,436.91,411.15,441.49,404.92z"/>
	<path class="st0" d="M721.77,357.79c0-15.77,5.6-29.26,16.79-40.45c11.19-11.19,24.68-16.79,40.45-16.79v216.76
		c0,15.77-5.6,29.26-16.79,40.45c-11.19,11.19-24.68,16.79-40.45,16.79V357.79z"/>
	<path class="st0" d="M1042.14,378.78c5.6,8.65,6.36,18.06,2.29,28.24l-42.74,95.79l-41.6,97.51
		c-7.25,16.03-15.65,28.11-25.19,36.25c-9.54,8.14-18.51,13.61-26.9,16.41c-21.37,7.89-42.81,7.38-64.3-1.53
		c-14.38-6.23-26.33-15.77-35.87-28.62c-6.49-10.18-7.13-20.13-1.91-29.86c5.22-9.73,13.86-14.98,25.95-15.74v0.19
		c9.79,0.25,17.68,4.26,23.66,12.02c1.91,2.54,3.82,4.61,5.72,6.2c1.91,1.59,3.5,2.64,4.77,3.15c7.51,3.18,14.69,3.43,21.56,0.76
		c8.4-3.05,15.01-10.18,19.84-21.37l-1.72-3.63l-74.99-167.53c-3.94-10.18-3.12-19.59,2.48-28.24c5.6-8.65,13.67-12.98,24.23-12.98
		c11.83,0,20.8,5.98,26.9,17.94l53.24,126.89l16.41-39.31l36.83-87.58c6.23-11.96,15.2-17.94,26.9-17.94
		C1028.4,365.8,1036.54,370.13,1042.14,378.78z"/>
	<path class="st0" d="M346.14,667.31c6.24,5.66,12.17,13.9,17.77,24.72c5.61,10.83,8.41,24.97,8.41,42.42v70.22
		c-12.09,0-22.43-4.29-31.01-12.87c-8.58-8.58-12.87-18.92-12.87-31.01v-26.33c0-15.51-4.19-27.31-12.58-35.4
		c-7.41-6.73-16.29-10.09-26.62-10.09c-5.07,0-11.12,1.54-18.14,4.61c-7.02,3.07-11.36,8.76-13.02,17.04
		c1.66,7.02,2.49,14.97,2.49,23.85v70.22c-12.19,0-22.55-4.29-31.09-12.87c-8.53-8.58-12.8-18.92-12.8-31.01v-26.33
		c0-15.51-4.19-27.31-12.58-35.4c-7.41-6.73-16.29-10.09-26.62-10.09c-5.46,0-12.07,1.73-19.82,5.19
		c-7.75,3.46-11.63,10.17-11.63,20.12v90.41c-12.09,0-22.43-4.29-31.01-12.87c-8.58-8.58-12.87-18.92-12.87-31.01v-72.56
		c0-12.09,4.27-22.38,12.8-30.87c8.53-8.48,18.85-12.73,30.94-12.73v6.58c9.66-4,20.19-6,31.6-6c21.36,0,40.08,7.22,56.18,21.65
		c14.63-14.43,33.16-21.65,55.59-21.65C310.88,645.22,329.85,652.59,346.14,667.31z"/>
	<path class="st0" d="M689.62,755.38c5.65,4.39,8.6,9.9,8.85,16.53c0.24,6.63-2.27,12.39-7.53,17.26
		c-13.26,10.34-27.4,15.51-42.42,15.51c-17.46,0-32.77-6.09-45.93-18.29c-5.07-4.48-9.8-11.02-14.19-19.6
		c-4.39-8.58-6.59-19.65-6.59-33.21V705.2c-6.53-0.2-11.97-2.46-16.31-6.8c-4.34-4.34-6.61-9.78-6.8-16.31v-13.6h23.11v-2.05
		c0-12.09,4.27-22.43,12.8-31.01c8.53-8.58,18.85-12.87,30.94-12.87v46.08c7.21,0.2,13.21,2.66,17.99,7.39
		c4.78,4.73,7.27,10.71,7.46,17.92v11.26h-25.45v28.38c0,9.27,2.48,16.38,7.46,21.36c4.29,4,9.46,6,15.51,6
		c0.98,0,2.88-0.27,5.71-0.8c2.83-0.54,5.61-1.93,8.34-4.17c3.9-3.31,8.34-5,13.31-5.05C680.85,750.87,685.43,752.36,689.62,755.38z
		"/>
	<path class="st0" d="M845.71,667.02c6.24,5.66,12.14,13.9,17.7,24.72c5.56,10.83,8.34,24.97,8.34,42.42v70.22
		c-12.09,0-22.41-4.29-30.94-12.87c-8.53-8.58-12.8-18.92-12.8-31.01v-26.33c0-15.51-4.2-27.31-12.58-35.4
		c-7.41-6.73-16.29-10.09-26.62-10.09c-5.46,0-12.07,1.73-19.82,5.19c-7.75,3.46-11.63,10.17-11.63,20.12v90.41
		c-12.09,0-22.43-4.29-31.01-12.87c-8.58-8.58-12.87-18.92-12.87-31.01V638.2c0-12.09,4.29-22.43,12.87-31.01
		c8.58-8.58,18.92-12.87,31.01-12.87v56.61c9.56-4,20.04-6,31.45-6C810.46,644.93,829.43,652.3,845.71,667.02z"/>
	<g>
		<path class="st0" d="M550.56,403.15c-3.34,1.93-6.85,7.24-7.26,18.83c-0.19,5.5-4.81,9.81-10.32,9.62
			c-5.5-0.19-9.81-4.81-9.62-10.32c0.5-14.21,4.99-28.34,17.22-35.4c12.26-7.08,26.79-3.86,39.38,2.85c4.86,2.59,6.7,8.63,4.1,13.49
			c-2.59,4.86-8.63,6.7-13.49,4.11C560.29,400.84,553.9,401.22,550.56,403.15z M604.03,420.45c4.24-3.51,10.53-2.92,14.04,1.32
			c7.37,8.9,14.44,19.04,20.86,30.16c13.83,23.96,22.36,48.5,24.66,69.09c1.15,10.28,0.8,20.06-1.6,28.45
			c-2.42,8.45-7.13,16.1-15.03,20.66c-9.56,5.52-20.6,4.74-30.7,1.06c-10.14-3.69-20.57-10.68-30.52-19.76
			c-4.07-3.71-4.36-10.02-0.64-14.09s10.02-4.36,14.09-0.64c8.76,8,17,13.24,23.9,15.75c6.93,2.52,11.29,1.92,13.9,0.41
			c2.19-1.26,4.39-3.83,5.83-8.88c1.46-5.11,1.92-12.1,0.96-20.75c-1.93-17.26-9.32-39.18-22.11-61.33
			c-5.88-10.19-12.32-19.41-18.95-27.41C599.2,430.25,599.79,423.97,604.03,420.45z"/>
		<path class="st0" d="M678.88,480.73c0-3.85-2.85-9.55-12.68-15.7c-4.67-2.92-6.09-9.07-3.17-13.74s9.07-6.09,13.74-3.17
			c12.05,7.54,22.05,18.5,22.05,32.61c0,14.16-10.05,25.14-22.16,32.68c-4.68,2.91-10.83,1.48-13.74-3.19
			c-2.91-4.68-1.48-10.83,3.19-13.74C676.02,490.31,678.88,484.59,678.88,480.73z M637.16,518.39c0.92,5.43-2.73,10.58-8.16,11.5
			c-11.39,1.93-23.71,2.99-36.55,2.99c-27.66,0-53.19-4.89-72.17-13.19c-9.48-4.14-17.77-9.34-23.83-15.61
			c-6.11-6.32-10.38-14.23-10.38-23.35c0-11.04,6.2-20.21,14.43-27.12c8.27-6.93,19.54-12.48,32.37-16.55
			c5.25-1.67,10.86,1.24,12.52,6.49c1.67,5.25-1.24,10.86-6.49,12.52c-11.31,3.59-19.97,8.1-25.59,12.82
			c-5.65,4.74-7.31,8.82-7.31,11.84c0,2.52,1.13,5.71,4.77,9.49c3.69,3.82,9.52,7.71,17.49,11.2c15.91,6.96,38.59,11.52,64.17,11.52
			c11.76,0,22.97-0.96,33.21-2.7C631.09,509.3,636.24,512.96,637.16,518.39z"/>
		<path class="st0" d="M550.85,552.86c3.34,1.93,9.69,2.31,19.93-3.13c4.86-2.59,10.9-0.74,13.49,4.13
			c2.58,4.86,0.74,10.9-4.13,13.49c-12.55,6.67-27.04,9.85-39.27,2.79c-12.26-7.08-16.74-21.27-17.22-35.53
			c-0.18-5.51,4.13-10.12,9.63-10.3c5.5-0.18,10.12,4.13,10.3,9.63C543.98,545.59,547.5,550.93,550.85,552.86z M539.09,497.9
			c-5.16-1.92-7.8-7.66-5.88-12.82c4.02-10.83,9.27-22.03,15.69-33.15c13.83-23.96,30.83-43.62,47.51-55.9
			c8.33-6.13,16.97-10.72,25.44-12.83c8.53-2.13,17.51-1.88,25.41,2.69c9.56,5.52,14.4,15.47,16.27,26.06
			c1.87,10.63,1.04,23.16-1.85,36.31c-1.18,5.38-6.5,8.78-11.88,7.6c-5.38-1.18-8.78-6.5-7.6-11.88
			c2.55-11.59,2.96-21.34,1.69-28.57c-1.28-7.27-3.99-10.74-6.6-12.25c-2.18-1.26-5.51-1.88-10.6-0.61
			c-5.15,1.29-11.44,4.38-18.45,9.54c-13.99,10.3-29.27,27.66-42.06,49.82c-5.88,10.19-10.65,20.37-14.26,30.12
			C550,497.18,544.26,499.82,539.09,497.9z"/>
		<path class="st0" d="M611.85,478.87c0,9.98-8.09,18.08-18.08,18.08s-18.08-8.09-18.08-18.08s8.09-18.08,18.08-18.08
			S611.85,468.89,611.85,478.87z"/>
	</g>
	<g>
		<path class="st0" d="M555.51,734.77c-1.41-1.9-3.39-3.31-5.68-3.98l-0.08-0.02c-0.98-0.28-2.11-0.47-3.28-0.52h0.01l-3.68,0.23
			h-24.25l-32.02-57.03c-4.07,4.26-6.89,9.76-7.84,15.87l-0.02,0.17c-0.26,1.56-0.4,3.37-0.4,5.21c0,6.13,1.63,11.88,4.47,16.84
			l-0.09-0.16l38.48,68.53c0.61,1.09,1.22,2.18,1.89,3.23c0.62,1,1.31,1.87,2.07,2.66l-0.01-0.01c1.61,1.63,3.73,2.75,6.11,3.08
			l0.06,0.01c0.41,0.06,0.89,0.09,1.37,0.09c1.98,0,3.82-0.55,5.4-1.5l-0.05,0.03c2.04-1.23,3.61-3.05,4.5-5.22l0.03-0.07
			c0.53-1.26,0.83-2.72,0.83-4.25c0-0.99-0.13-1.95-0.36-2.86l0.02,0.08c-0.32-1.21-0.73-2.27-1.24-3.26l0.04,0.09
			c-0.55-1.13-1.17-2.21-1.78-3.3l-8.87-15.8h11.57c1.24,0,2.48,0.01,3.72-0.07c1.2-0.05,2.34-0.24,3.42-0.54l-0.11,0.02
			c2.37-0.69,4.35-2.1,5.74-3.97l0.02-0.03c1.39-1.87,2.22-4.22,2.22-6.77s-0.83-4.9-2.25-6.8l0.02,0.03L555.51,734.77z
			 M405.25,756.89l-5.78,10.96c-0.6,1.13-1.2,2.26-1.74,3.44c-0.46,0.94-0.86,2.04-1.15,3.18l-0.02,0.12
			c-0.22,0.87-0.34,1.87-0.34,2.89c0,1.59,0.3,3.11,0.84,4.51l-0.03-0.09c0.88,2.31,2.42,4.2,4.39,5.49l0.04,0.03
			c1.48,0.96,3.3,1.54,5.25,1.54c0.47,0,0.93-0.04,1.38-0.1l-0.05,0.01c2.41-0.37,4.49-1.53,6.02-3.21l0.01-0.01
			c0.74-0.81,1.41-1.72,1.98-2.69l0.04-0.08c0.66-1.1,1.25-2.23,1.85-3.37l8.39-15.89c-3.23-4.79-8.62-7.9-14.75-7.9
			c-2.27,0-4.45,0.43-6.44,1.21L405.25,756.89L405.25,756.89z M446.91,730.5l44.5-80.38c0.61-1.1,1.22-2.2,1.78-3.34
			c0.47-0.91,0.88-1.98,1.17-3.09l0.02-0.11c0.22-0.85,0.34-1.81,0.34-2.81c0-1.55-0.3-3.02-0.86-4.38l0.03,0.08
			c-0.91-2.26-2.48-4.1-4.47-5.33l-0.05-0.03c-1.53-0.94-3.37-1.49-5.34-1.49c-0.48,0-0.95,0.03-1.42,0.1l0.05-0.01
			c-2.43,0.34-4.56,1.47-6.15,3.12v-0.3c0,0-1.55,1.68-2.14,2.62l-0.04,0.07c-0.67,1.07-1.28,2.17-1.89,3.28l-2.82,5.09l-2.82-5.09
			c-0.61-1.1-1.22-2.21-1.89-3.28c-0.63-1.02-1.31-1.9-2.07-2.7l0.01,0.01c-1.6-1.65-3.72-2.79-6.11-3.13l-0.06-0.01
			c-0.41-0.06-0.88-0.09-1.36-0.09c-1.98,0-3.83,0.56-5.4,1.52l0.05-0.02c-2.04,1.26-3.62,3.1-4.5,5.29l-0.03,0.08
			c-0.53,1.28-0.83,2.76-0.83,4.31c0,1,0.13,1.97,0.36,2.9l-0.02-0.08c0.32,1.23,0.73,2.3,1.24,3.31l-0.04-0.09
			c0.55,1.14,1.17,2.24,1.78,3.35l9.11,16.46l-35.5,64.18h-24.33c-1.22-0.05-2.45-0.06-3.67,0.02c-1.19,0.05-2.31,0.24-3.38,0.55
			l0.11-0.02c-2.34,0.7-4.29,2.1-5.66,3.97l-0.02,0.03c-1.37,1.88-2.2,4.23-2.2,6.77s0.82,4.9,2.22,6.81l-0.02-0.04
			c1.38,1.9,3.34,3.31,5.6,3.98l0.08,0.02c0.96,0.28,3.24,0.35,3.24,0.35h0.04c0,0,2.45,0.23,3.67,0.23h95.7
			c0.26-0.54,0.51-1.19,0.71-1.87l0.02-0.09c0.45-1.42,0.72-3.05,0.72-4.74c0-8.67-6.91-15.72-15.51-15.97h-0.02L446.91,730.5z"/>
	</g>
</g>
</svg>
